<svg width="727" height="400" viewBox="0 0 727 400" fill="none" xmlns="http://www.w3.org/2000/svg">
<mask id="mask0_305_53" style="mask-type:alpha" maskUnits="userSpaceOnUse" x="0" y="0" width="727" height="400">
<rect x="2" y="398" width="396" height="723" rx="28" transform="rotate(-90 2 398)" fill="white" stroke="black" stroke-width="4"/>
</mask>
<g mask="url(#mask0_305_53)">
<g opacity="0.06">
<path d="M-104.161 -352.649C-84.1686 -355.882 -64.3941 -359.774 -47.828 -372.728C-37.2205 -381.019 -30.8036 -392.323 -25.8273 -404.572C-19.8469 -419.329 -14.1503 -434.218 -7.88616 -448.865C-1.62205 -463.512 6.86834 -476.861 20.226 -486.252C39.3239 -499.733 62.154 -497.886 82.0595 -484.185C96.5521 -474.222 108.142 -461.049 119.688 -448.073C139.986 -425.355 161.485 -404.089 186.41 -386.495C212.907 -367.801 239.535 -349.218 265.334 -329.579C282.577 -316.383 296.742 -300.131 301.02 -277.809C303.202 -266.483 304.512 -255.003 302.133 -243.171C299.754 -231.339 299.23 -218.738 297.768 -206.51C295.585 -187.883 294.515 -169.123 293.206 -150.452C291.831 -130.659 293.948 -111.174 295.017 -91.5784C295.476 -83.5073 295.498 -75.3701 296.48 -67.3869C298.793 -48.9794 301.434 -30.5279 310.885 -14.0997C318.175 -1.43213 329.721 6.30919 343.166 10.7516C372.479 20.4722 400.045 33.8435 427.088 48.7103C440.828 56.6909 456.53 60.5872 472.377 59.9483C489.707 58.9147 506.491 54.4943 515.353 37.7801C519.992 28.2358 523.051 17.9916 524.411 7.45278C532.246 -41.546 552.042 -85.0907 580.089 -125.578C603.53 -159.403 630.879 -189.554 660.017 -218.21C666.564 -224.698 674.182 -230.262 680.511 -237.035C693.258 -250.671 701.53 -267.209 709.627 -283.945C716.655 -298.482 726.281 -311.127 741.734 -318.011C755.397 -324.081 772.399 -313.612 773.447 -298.57C774.538 -282.911 767.729 -271.123 756.117 -261.975C746.666 -254.519 736.474 -248.185 726.674 -241.06C712.152 -230.754 702.254 -215.09 699.129 -197.471C695.091 -175.985 690.573 -154.608 686.928 -133.056C685.16 -122.588 685.226 -111.811 683.982 -101.233C682.17 -85.9704 680.511 -70.6418 677.696 -55.5551C674.487 -38.3571 670.69 -21.1812 665.953 -4.35707C662.439 8.17853 657.223 20.2303 652.399 32.392C647.03 46.2911 641.115 59.9923 636.008 73.9794C629.787 91.1114 643.145 108.177 656.481 112.95C672.348 118.624 687.998 117.788 703.974 114.797C737.172 108.573 769.235 98.0389 801.537 88.4063C823.364 81.9406 845.19 75.4309 866.798 68.2614C886.878 61.6637 906.696 54.0544 926.623 46.9069C947.443 39.772 968.831 34.4451 990.552 30.9845C991.692 30.8854 992.839 30.8854 993.979 30.9845" stroke="black" stroke-width="2" stroke-linecap="round" stroke-linejoin="round"/>
<path d="M-104.161 -385.879C-92.4402 -389.686 -81.6272 -395.895 -72.4021 -404.115C-63.177 -412.336 -55.7392 -422.39 -50.5563 -433.646C-41.3457 -452.802 -32.6152 -472.177 -22.9462 -491.068C-12.426 -511.675 1.82649 -529.445 23.0634 -539.451C54.2311 -554.076 86.3592 -552.361 110.193 -521.549C123.878 -503.956 136.93 -485.68 150.092 -467.58C170.787 -439.097 197.515 -415.613 228.338 -398.833C251.321 -386.143 275.81 -378.204 300.605 -370.617C313.439 -366.702 326.098 -362.677 337.164 -354.232C347.328 -346.286 354.235 -334.849 356.567 -322.102C359.405 -309.195 360.317 -295.935 359.274 -282.757C357.484 -267.054 354.351 -251.536 349.91 -236.376C344.672 -216.803 337.906 -197.625 332.297 -178.14C327.781 -162.665 325.978 -146.516 326.971 -130.417C328.171 -111.833 330.878 -93.5578 339.477 -76.2279C348.426 -58.2382 362.591 -48.0338 380.314 -41.0403C400.859 -33.0208 422.935 -29.7734 444.898 -31.5396C459.871 -32.5952 473.032 -38.863 484.883 -48.5396C498.547 -59.7337 508.718 -73.8088 518.299 -88.2357C541.871 -123.702 565.022 -159.469 587.75 -195.536C601.217 -216.913 610.908 -240.202 619.529 -263.976C627.692 -286.496 635.855 -309.016 645.066 -331.096C652.421 -348.69 665.997 -361.16 682.716 -369.891C700.177 -378.996 717.9 -387.111 737.652 -390.124C773.076 -395.512 792.611 -388.1 812.451 -355.332C823.45 -337.491 829.391 -316.955 829.628 -295.953C829.633 -278.297 823.615 -261.176 812.581 -247.46C800.599 -231.845 784.688 -220.585 769.933 -208.028C749.124 -190.554 733.26 -167.856 723.945 -142.227C715.495 -118.535 709.961 -93.8881 707.467 -68.8385C704.957 -45.5487 702.381 -22.2369 700.766 1.11892C700.002 11.8731 699.74 23.1112 702.316 33.5355C706.812 51.6792 717.9 61.0039 739.726 64.1268C760.722 67.1397 781.195 63.0712 801.559 59.2665C833.513 53.2846 863.567 41.6727 892.967 28.1254C924.42 13.7364 957.076 2.18192 990.552 -6.40248C991.691 -6.53462 992.84 -6.53462 993.979 -6.40248" stroke="black" stroke-width="2" stroke-linecap="round" stroke-linejoin="round"/>
<path d="M993.957 48.9522C971.83 50.8317 949.963 55.063 928.719 61.5758C895.783 71.7802 863.415 83.92 830.348 93.7505C789.271 105.934 749.919 122.34 710.719 139.362C694.72 146.334 677.718 152.03 659.973 152.558C645.487 152.964 631.193 149.145 618.809 141.562C605.444 133.264 593.168 123.304 582.272 111.916C573.018 102.503 562.476 94.0144 549.292 92.1231C537.615 90.4737 525.524 91.4633 513.629 91.9032C506.491 92.1671 499.442 94.1024 492.304 94.4543C478.141 95.6037 463.928 96.0294 449.722 95.7298C429.322 94.7387 409.056 91.8677 389.176 87.1528C380.48 84.8537 371.434 84.2123 362.504 85.2615C357.131 86.1488 352.084 88.4448 347.87 91.919C343.655 95.3932 340.422 99.9233 338.495 105.055C331.948 120.669 325.574 136.394 319.223 152.118C311.846 170.328 304.796 188.691 297.135 206.791C289.801 224.099 276.771 234.897 258.022 237.052C251.322 237.8 244.272 236.063 237.44 235.161C221.856 233.094 206.731 228.189 190.689 228.849C175.781 229.443 164.323 245.035 166.44 260.166C170.805 291.615 185.669 318.819 199.048 346.64C210.267 369.952 221.725 393.175 234.188 415.827C244.056 433.784 259.766 447.765 278.67 455.414C284.563 457.877 290.543 460.142 296.545 462.341C306.52 465.97 313.766 457.613 311.125 448.464C301.893 416.575 300.823 383.741 302.242 350.884C302.945 335.395 306.367 320.153 312.348 305.866C315.283 299.273 319.991 293.638 325.939 289.6C331.886 285.562 338.837 283.282 346.004 283.016C366.695 282.983 386.86 289.584 403.581 301.863C432.326 322.14 450.769 350.554 464.192 382.729C471.46 400.169 479.471 417.279 486.761 434.697C497.084 459.328 516.946 469.269 541.763 472.919C559.565 475.359 577.549 476.184 595.499 475.382C629.242 474.305 657.463 461.989 676.583 432.564C691.272 409.955 705.328 386.908 720.759 364.849C732.263 348.091 744.901 332.153 758.584 317.148C777.747 296.541 802.236 287.019 830.61 286.997C852.676 286.997 873.586 292.121 894.539 298.125C918.693 305.045 942.979 311.481 967.395 317.434C976.125 319.523 985.227 319.457 994.154 320.381" stroke="black" stroke-width="2" stroke-linecap="round" stroke-linejoin="round"/>
<path d="M-104.161 -370.638C-95.2345 -374.113 -86.0675 -377.082 -77.4243 -381.129C-63.1097 -387.889 -51.5082 -399.361 -44.5323 -413.655C-34.1212 -434.13 -25.0852 -455.331 -14.6959 -475.828C-5.96546 -493.158 6.40998 -507.387 24.3293 -516.095C48.0107 -527.597 71.5829 -523.683 91.663 -508.398C108.622 -495.467 120.67 -478.005 133.635 -461.379C157.032 -431.315 184.381 -405.606 217.469 -386.605C241.805 -372.662 266.425 -359.247 290.98 -345.721C309.816 -335.341 324.919 -321.838 330.878 -299.999C334.252 -288.583 334.881 -276.521 332.711 -264.812C327.08 -237.233 319.616 -210.007 314.683 -182.297C311.845 -166.506 312.369 -150.056 311.627 -133.914C310.562 -112.136 313.379 -90.3415 319.943 -69.5643C327.058 -47.0882 340.852 -29.4064 363.224 -21.3352C387.757 -12.5383 412.813 -4.86297 438.088 1.4928C460.853 7.23278 480.845 0.854964 494.29 -19.7298C507.735 -40.3146 519.958 -60.7894 532.879 -81.3082C549.751 -108.117 566.775 -134.859 583.712 -161.646C600.911 -188.872 618.438 -215.901 635.135 -243.413C648.078 -264.768 659.296 -287.178 672.545 -308.312C687.081 -331.492 705.633 -350.911 732.174 -360.302C758.714 -369.693 783.356 -362.303 798.067 -336.111C805.076 -324.151 808.84 -310.545 808.98 -296.657C809.269 -281.757 804.084 -267.275 794.422 -255.993C785.36 -245.298 775.239 -235.564 764.215 -226.941C732.327 -202.75 714.364 -170.245 706.135 -131.824C701.552 -110.558 698.54 -88.9615 695.004 -67.475C691.468 -45.9886 687.867 -24.5681 684.746 -3.05963C682.301 13.7205 679.442 30.5886 678.831 47.5226C678.35 60.718 683.327 73.2755 696.466 79.1035C704.084 82.3638 712.21 84.2544 720.475 84.6895C741.428 85.9211 761.945 81.4567 782.308 77.3221C809.16 71.9241 835.566 64.4766 861.297 55.0439C879.348 48.4462 897.092 40.8809 914.924 33.6455C938.802 24.2939 963.403 16.9383 988.478 11.6532C990.299 11.4547 992.136 11.4547 993.957 11.6532" stroke="black" stroke-width="2" stroke-linecap="round" stroke-linejoin="round"/>
<path d="M-104.161 -402.483C-83.3611 -412.622 -68.7812 -429.028 -58.9158 -449.635C-48.3955 -471.627 -39.1194 -494.125 -28.3591 -515.985C-16.944 -539.561 -0.35614 -558.958 23.0197 -571.34C36.1103 -578.043 50.2628 -582.39 64.8386 -584.183C95.1115 -588.406 113.598 -573.869 126.781 -548.622C137.542 -527.949 147.778 -506.836 159.913 -487.043C186.956 -442.861 225.174 -414.051 276.509 -403.649C295.934 -399.69 315.403 -399.25 334.937 -399.866C344.664 -400.187 354.326 -401.588 363.748 -404.045C374.661 -406.926 381.995 -414.755 386.513 -425.289C392.1 -438.265 397.906 -451.174 403.668 -464.062C413.73 -486.538 424.774 -508.464 442.955 -525.64C457.651 -539.603 476.414 -548.431 496.473 -550.821C515.374 -553.372 533.752 -551.129 552.152 -547.786C573.279 -543.938 594.385 -539.891 615.447 -535.294C636.51 -530.698 647.685 -515.655 652.552 -495.225C656.415 -479.082 659.602 -462.698 664.425 -446.842C669.009 -431.799 679.704 -423.86 695.79 -421.572C710.238 -419.505 723.814 -424.058 737.761 -424.3C756.728 -424.629 776.263 -428.06 794.182 -417.152C805.82 -409.946 815.413 -399.833 822.032 -387.792C833.167 -368.325 841.542 -347.383 846.914 -325.576C853.833 -296.326 852.414 -267.736 832.902 -243.545C823.123 -231.317 811.185 -220.651 799.377 -210.249C784.098 -196.789 767.379 -185.046 755.397 -167.958C740.354 -146.377 730.09 -121.792 725.299 -95.8669C721.84 -77.5604 719.406 -59.0723 718.009 -40.4903C716.481 -21.621 716.459 -3.10344 722.025 14.8643C728.027 34.1955 742.323 42.2226 761.006 44.6638C797.761 49.4801 831.898 38.6819 864.637 24.299C904.862 6.70513 944.455 -12.4941 986.405 -25.8874C988.891 -26.5202 991.413 -26.9976 993.957 -27.3169" stroke="black" stroke-width="2" stroke-linecap="round" stroke-linejoin="round"/>
<path d="M-104.161 -56.281C-88.7301 -56.061 -73.8664 -59.8877 -59.5703 -64.8359C-36.8274 -72.7092 -14.5211 -81.9239 7.82892 -90.9628C24.7005 -97.8024 41.9432 -103.63 60.0808 -104.51C80.9684 -105.5 100.372 -98.946 117.724 -87.3341C134.65 -76.168 149.996 -62.7403 163.34 -47.4181C187.742 -19.158 213.824 7.56259 243.552 30.3026C261.012 43.6299 270.07 61.6856 268.761 83.5679C267.233 108.749 258.655 131.709 235.781 144.772C223.843 151.59 209.59 154.845 196.101 158.166C172.093 164.126 150.092 173.758 133.744 193.089C122.438 206.439 116.742 221.525 118.815 240.109C121.194 261.397 131.911 278.353 142.824 295.354C159.739 322.096 177.549 348.267 190.645 377.209C198.35 394.253 205.159 411.715 211.991 429.111C222.162 454.995 237.571 476.174 262.191 490.161C277.906 499.09 293.883 508.305 305.385 522.71C316.887 537.115 326.906 552.575 337.71 567.574C345.48 578.394 353.774 588.84 365.232 595.9C378.721 604.213 393.279 607.886 409.169 604.323C420.344 601.816 431.911 600.628 442.781 597.176C471.155 588.115 491.104 569.531 501.973 541.293C506.557 529.439 511.053 517.388 522.555 510.108C532.639 503.73 544.032 501.465 555.535 500.541C573.367 499.134 591.352 499.266 609.118 497.397C621.273 496.368 633.25 493.789 644.76 489.721C665.801 481.738 678.875 464.716 688.871 445.033C704.804 413.65 720.912 382.267 742.585 354.425C755.681 337.491 769.977 321.26 789.206 310.726C800.953 304.559 813.777 300.75 826.965 299.51C853.156 296.431 877.755 304.216 902.571 310.66C926.143 316.796 949.694 322.954 973.375 328.54C979.923 330.079 987.082 329.617 993.957 330.079" stroke="black" stroke-width="2" stroke-linecap="round" stroke-linejoin="round" stroke-dasharray="0.04 0.04"/>
<path d="M-104.161 -24.436C-92.7024 -28.3506 -80.9381 -31.5175 -69.8722 -36.3778C-51.2763 -44.5369 -32.986 -53.4218 -14.8703 -62.6146C2.30858 -71.6675 20.3291 -78.9968 38.9312 -84.4969C59.4919 -90.3067 81.4484 -88.3757 100.699 -79.0648C124.162 -68.0687 141.798 -49.9471 157.753 -29.9561C172.9 -10.9987 187.306 8.57439 198.066 30.3907C203.603 41.2685 207.488 52.9223 209.59 64.9625C212.035 80.687 205.225 94.6741 194.05 105.604C185.86 113.363 177.161 120.556 168.011 127.135C148.368 141.628 128.135 155.241 111.743 173.626C101.005 185.656 92.0998 198.72 89.0223 215.148C85.9243 230.756 87.5672 246.942 93.7367 261.595C102.227 281.806 115.759 298.542 128.986 315.477C146.229 337.469 162.271 360.297 173.621 386.138C182.262 406.091 188.47 427.026 192.107 448.486C194.006 459.328 195.316 470.302 197.738 481.012C201.624 498.21 212.187 509.228 229.19 514.375C240.153 517.615 250.899 521.56 261.362 526.185C276.277 532.654 289.457 542.595 299.819 555.192C311.191 569.421 322.169 584.002 332.821 598.803C345.807 616.881 362.897 625.458 385.203 625.194C407.51 624.93 428.136 619.674 449.132 614.022C464.317 609.708 479.052 603.926 493.134 596.758C506.928 589.984 517.71 579.824 527.445 568.168C537.878 555.764 548.354 543.053 563.96 537.379C573.284 534.17 582.944 532.052 592.749 531.067C611.934 528.692 631.403 528.296 650.413 525.085C673.724 521.148 689.067 506.699 696.554 483.849C702.709 465.068 708.667 446.177 715.87 427.791C730.646 390.184 752.058 356.976 783.858 331.597C804.462 315.125 828.842 309.846 854.532 312.31C873.52 314.135 891.92 319.611 910.254 325.109C931.622 331.509 953.055 338.041 975.492 339.844C981.473 340.306 987.409 341.185 993.368 341.867" stroke="black" stroke-width="2" stroke-linecap="round" stroke-linejoin="round"/>
<path d="M993.957 71.1203C966.5 72.215 939.275 76.6455 912.873 84.3156C884.914 92.7607 856.845 100.942 829.082 110.047C799.183 119.683 770.723 133.371 744.484 150.732C730.231 160.233 716.415 170.855 701.05 178.135C669.904 192.87 637.863 193.969 607.197 176.199C593.076 168.04 579.958 158.1 566.579 148.643C546.717 134.634 525.349 126.035 500.576 126.387C479.187 126.717 458.277 128.74 438.044 136.195C412.857 145.476 394.174 161.311 385.094 187.459C378.284 207.077 381.296 225.484 392.864 242.044C402.662 255.999 413.19 269.418 424.403 282.246C447.844 309.231 466.069 339.426 481.391 371.623C489.03 387.677 496.473 403.885 507.583 418.026C514.095 426.594 522.239 433.765 531.538 439.12C540.836 444.475 551.102 447.906 561.733 449.212C570.158 450.377 578.714 452.18 587.139 451.807C613.767 450.619 637.907 443.362 657.419 423.107C673.636 406.305 686.579 387.215 699.893 368.258C713.905 348.289 727.896 328.276 742.563 308.879C755.484 291.681 771.963 278.925 793.331 274.307C808.042 271.118 822.927 272.108 837.987 273.229C870.574 275.89 900.236 289.328 931.447 296.915C947.118 300.742 963.008 303.623 978.853 306.636C983.808 307.581 988.915 307.647 993.957 308.109" stroke="black" stroke-width="2" stroke-linecap="round" stroke-linejoin="round"/>
<path d="M993.957 93.2886C985.03 93.2886 976.081 93.4646 967.155 93.2886C948.471 92.8268 930.29 96.3455 912.196 100.282C882.882 106.63 854.152 115.459 826.31 126.673C793.726 139.57 764.851 160.456 742.301 187.438C727.394 205.251 708.82 216.885 684.746 219.678C655.979 222.999 628.5 219.678 603.094 205.955C588.056 197.84 574.414 187.064 560.38 177.123C547.023 167.644 533.294 158.826 517.033 155.813C495.797 151.898 475.411 153.877 456.531 165.995C446.65 172.132 438.776 181.058 433.886 191.665C428.997 202.273 427.309 214.094 429.03 225.66C432.13 245.057 441.864 261.486 451.031 278.288C467.248 307.977 483.072 337.843 499.223 367.576C508.565 384.796 517.841 402.192 534.254 413.936C553.701 427.813 575.222 431.838 598.86 428.737C621.646 425.746 639.369 414.662 655.237 398.805C678.394 375.713 695.288 348.223 712.225 320.513C720.955 306.13 729.555 291.505 739.158 277.672C749.286 263.135 764.28 257.285 781.61 255.24C812.298 251.633 841.327 258.802 870.246 267.248C896.001 274.769 921.363 283.742 947.315 290.405C962.44 294.276 978.395 294.804 993.957 297.003" stroke="black" stroke-width="2" stroke-linecap="round" stroke-linejoin="round"/>
<path d="M993.957 352.248C972.311 351.022 950.873 347.333 930.05 341.251C912 336.215 893.949 331.113 875.746 326.759C843.749 319.083 813.695 323.218 787.154 344.022C770.061 357.685 755.832 374.631 745.291 393.879C735.984 410.27 729.185 427.983 725.124 446.418C720.148 469.356 719.231 492.096 724.6 514.99C726.783 524.491 728.965 533.97 731.497 543.382C732.02 545.291 732.145 547.289 731.862 549.249C731.58 551.209 730.897 553.088 729.857 554.769C728.817 556.449 727.443 557.894 725.82 559.011C724.198 560.129 722.363 560.896 720.431 561.262C710.937 563.219 701.224 564.253 691.599 565.529C678.787 567.222 665.953 568.806 653.119 570.389C646.943 571.137 640.766 572.148 634.567 572.412C609.713 573.364 585.436 580.23 563.72 592.447C544.549 603.038 523.967 610.8 502.606 615.495C476.895 621.301 451.446 627.921 425.647 633.947C410.129 637.619 394.61 641.622 378.895 644.129C368.686 645.741 358.312 646.014 348.033 644.943C332.646 643.315 323.806 632.165 316.32 619.63C309.336 607.276 301.73 595.289 293.533 583.716C283.581 570.279 270.9 560.075 253.875 556.512C237.462 553.081 223.69 561.548 218.582 575.865C213.65 589.654 215.09 602.872 218.91 616.089C226.44 642.084 243.661 660.337 266.207 674.28C273.644 678.603 280.737 683.5 287.422 688.927C300.518 700.033 305.822 715.494 308.703 731.746C310.885 743.402 311.584 755.278 313.068 766.934" stroke="black" stroke-width="2" stroke-linecap="round" stroke-linejoin="round"/>
<path d="M-104.161 -2.26777C-85.1942 -7.5899 -67.7115 -16.3208 -50.5561 -25.8215C-25.4123 -39.7646 -1.35991 -55.7969 25.8355 -66.0014C58.1819 -78.1631 88.8913 -75.9639 116.458 -54.0816C145.377 -31.1216 164.737 -0.92625 176.873 33.8875C185.079 57.3313 180.43 78.8398 164.759 98.3029C151.663 114.643 134.748 126.783 119.208 140.352C102.074 155.307 85.7265 171.141 74.8352 191.132C59.1641 219.964 61.7396 248.906 78.0874 276.902C89.1096 295.75 103.689 311.826 117.942 328.122C137.935 351.016 155.046 375.823 164.497 405.095C169.89 420.619 172.24 437.051 171.416 453.478C169.233 482.992 154.523 505.006 131.038 522.116C96.5523 547.033 61.8487 571.731 28.6948 598.341C2.80892 619.168 -16.5727 645.735 -24.3647 679.097C-27.4421 692.424 -29.9085 706.037 -26.5473 719.937C-23.186 733.836 -20.6106 747.625 -17.5112 761.502C-16.8443 763.246 -15.9408 764.889 -14.8266 766.384" stroke="black" stroke-width="2" stroke-linecap="round" stroke-linejoin="round"/>
<path d="M-104.161 719.233C-84.2557 718.859 -71.7711 707.841 -62.8442 690.885C-51.7347 669.706 -40.8652 648.308 -28.3589 627.965C-14.1937 604.939 6.30111 587.763 27.7126 571.665C54.2096 551.674 81.0339 531.815 106.592 510.526C120.19 499.2 133.329 486.664 141.187 469.95C148.666 453.986 151.14 436.104 148.28 418.686C144.592 392.713 131.627 371.689 115.541 352.38C99.4552 333.07 81.8633 315.191 65.6464 296.035C54.1454 282.459 45.927 266.379 41.6376 249.06C37.6252 232.899 39.1639 215.844 46.0029 200.677C52.5507 185.898 60.4082 171.713 72.478 160.343C92.1216 141.847 111.765 123.264 130.863 104.219C144.112 91.0234 153.955 75.6288 157.054 56.5395C159.237 43.3441 156.072 30.6545 151.467 18.4928C142.431 -5.43479 128.899 -26.4374 108.164 -41.6561C91.5759 -53.8178 73.2419 -59.5578 51.8741 -56.6768C27.0141 -53.3339 6.34473 -41.5241 -13.9754 -28.5267C-34.2956 -15.5292 -53.9173 -1.36619 -75.9399 8.68428C-85.1069 12.8628 -94.6886 16.1397 -104.074 19.8344" stroke="black" stroke-width="2" stroke-linecap="round" stroke-linejoin="round"/>
<path d="M-103.484 682.528C-98.5735 678.591 -93.1169 675.314 -89.1882 670.63C-80.4578 660.183 -72.2511 649.275 -64.3719 638.169C-51.5817 620.048 -40.6687 600.32 -23.6442 585.74C-9.3481 573.49 5.71196 562.098 20.9685 551.058C48.9496 530.803 77.9784 511.846 101.922 486.598C113.555 474.305 123.748 460.867 127.415 443.735C131.256 426.142 128.637 409.537 121.391 393.153C114.676 378.792 105.525 365.723 94.348 354.535C79.3316 338.744 63.7914 323.482 48.3821 308.065C33.7575 293.984 22.5861 276.666 15.752 257.483C11.3007 243.588 11.232 228.644 15.5555 214.708C22.1213 192.658 34.1814 172.67 50.5865 156.648C69.9682 137.383 90.6158 119.437 110.128 100.304C122.242 88.4502 131.78 74.5731 135.665 57.4851C140.03 38.0439 135.818 19.7243 126.52 2.90021C117.986 -12.4944 106.44 -25.6897 90.3102 -33.9148C74.1806 -42.14 56.7633 -42.8877 39.477 -37.9614C16.7778 -31.4737 -1.99271 -17.6626 -21.0688 -4.20331C-35.2558 5.84716 -49.4428 16.1616 -64.481 24.6506C-75.787 31.0064 -88.4898 34.6131 -100.712 39.5173C-101.715 40.0845 -102.645 40.7713 -103.484 41.5627" stroke="black" stroke-width="2" stroke-linecap="round" stroke-linejoin="round"/>
<path d="M-103.485 649.341C-80.5671 625.15 -66.9258 593.877 -42.4805 570.873C-29.4667 558.902 -15.1269 548.482 0.255178 539.82C29.5677 522.842 58.5747 505.248 82.5835 480.925C92.7069 471.186 100.738 459.456 106.178 446.463C115.585 422.645 109.102 401.796 95.701 382.047C83.151 363.552 65.8865 349.719 48.9712 335.666C26.9268 317.324 5.31884 298.653 -12.906 276.132C-26.2855 259.55 -26.5037 242.088 -18.3407 223.351C-5.71371 194.783 12.3159 168.967 34.7405 147.346C48.3382 134.15 63.7039 122.56 77.8036 109.717C91.3576 97.4012 104.912 85.1295 113.729 68.3274C132.544 32.458 109.364 -13.044 76.6249 -23.2264C62.3935 -27.6725 47.0589 -26.8933 33.3436 -21.0272C14.9442 -13.6378 -1.01076 -1.95989 -16.1581 10.7297C-42.3495 32.7219 -71.1601 49.3701 -104.139 58.4529" stroke="black" stroke-width="2" stroke-linecap="round" stroke-linejoin="round"/>
<path d="M-104.161 191.594C-97.0679 192.518 -89.9744 193.683 -82.859 194.321C-59.4832 196.52 -40.9528 186.316 -24.4304 170.855C-8.97744 156.406 6.30088 141.715 22.4086 128.058C35.286 117.062 49.2548 107.517 62.8306 97.445C74.7402 88.9841 84.7619 78.107 92.2523 65.5122C106.592 40.3971 99.6732 9.58588 72.3905 -2.17999C58.9456 -7.98595 45.5662 -5.30291 32.5796 0.481057C17.6723 7.07874 5.53696 17.635 -6.57656 28.1913C-23.9065 43.322 -40.4944 59.6623 -62.2988 68.2173C-75.9838 73.5834 -90.1926 77.542 -104.161 82.2044" stroke="black" stroke-width="2" stroke-linecap="round" stroke-linejoin="round"/>
<path d="M-104.161 150.117C-99.7961 150.579 -95.4309 151.282 -91.0657 151.458C-73.1027 152.25 -57.6716 145.476 -43.6811 134.854C-36.4129 129.312 -29.4504 123.33 -22.3351 117.59C-8.58457 106.462 7.67593 100.194 23.6527 93.2227C40.8081 85.7233 56.9158 76.1346 67.4796 59.9923C72.0631 52.9988 75.2061 45.0595 71.8449 35.8008C68.0908 25.1785 60.2988 20.1643 49.0147 21.1759C36.9012 22.2536 27.5159 28.6094 19.6585 36.7245C8.43984 48.2705 -1.81846 60.916 -12.0768 73.2977C-24.2586 88.4378 -40.859 99.3325 -59.5269 104.439C-72.819 108.111 -86.0893 112.158 -99.3378 116.183C-100.837 116.887 -102.233 117.797 -103.485 118.888" stroke="black" stroke-width="2" stroke-linecap="round" stroke-linejoin="round"/>
<path d="M377.564 388.931C380.118 397.728 384.811 404.215 394.021 407.052C398.692 408.482 401.573 406.283 404.301 403.424C407.03 400.565 409.212 397.706 407.051 393.813C404.503 388.724 401.478 383.893 398.015 379.386C395.309 376.175 391.162 373.228 386.535 375.208C381.1 377.539 376.757 381.255 377.564 388.249" stroke="black" stroke-width="2" stroke-linecap="round" stroke-linejoin="round"/>
<path d="M331.511 377.165C332.886 385.698 333.366 394.517 335.876 402.742C343.865 429.704 363.312 444.747 389.351 451.851C400.495 455.12 412.081 456.605 423.683 456.249C438.569 455.523 451.271 446.946 452.952 433.971C453.899 425.673 453.464 417.273 451.664 409.12C446.601 385.126 436.386 363.244 419.405 345.54C407.226 332.916 392.712 323.548 374.203 323.196C365.841 322.894 357.614 325.382 350.798 330.273C343.983 335.164 338.96 342.185 336.509 350.246C333.89 358.691 333.126 367.73 331.511 376.505" stroke="black" stroke-width="2" stroke-linecap="round" stroke-linejoin="round" stroke-dasharray="0.04 0.04"/>
<path d="M535.608 297.465C539.973 310.396 543.53 323.658 548.878 336.149C551.636 342.759 555.928 348.605 561.393 353.197C566.858 357.789 573.337 360.993 580.286 362.54C592.552 365.619 604.033 361.792 613.789 354.799C623.545 347.805 632.232 338.634 636.117 325.989C637.17 322.926 637.392 319.634 636.758 316.456C636.125 313.278 634.66 310.327 632.516 307.911C626.763 300.69 619.108 295.248 610.428 292.209C594.429 286.205 577.994 281.344 561.712 276.088C546.826 271.272 533.49 277.606 535.52 296.849" stroke="black" stroke-width="2" stroke-linecap="round" stroke-linejoin="round"/>
<path d="M556.212 -0.200914C558.099 9.54456 561.541 18.9174 566.404 27.5533C572.799 38.5495 584.062 46.2468 593.229 43.1679C602.396 40.0889 611.388 36.5702 618.503 30.6763C634.759 17.1891 646.827 -0.718935 653.273 -20.9176C659.777 -39.2096 663.643 -58.3472 664.753 -77.7456C665.299 -90.2153 666.499 -102.707 665.888 -115.133C665.408 -124.941 664.993 -134.926 660.17 -144.338C654.451 -155.466 646.157 -157.644 635.31 -152.365C615.884 -142.931 602.57 -126.59 589.824 -109.634C580.429 -97.0185 572.662 -83.2511 566.71 -68.6629C559.813 -51.9927 555.055 -34.5968 556.146 -16.1233C556.452 -11.0651 556.146 -5.96288 556.146 -0.882669" stroke="black" stroke-width="2" stroke-linecap="round" stroke-linejoin="round"/>
<path d="M5.10061 437.402C5.9134 440.512 7.10084 443.511 8.63645 446.331C14.224 454.358 19.5495 455.128 31.2047 450.575C42.6198 446.177 48.6657 437.116 50.2371 425.614C51.5249 416.025 46.8323 408.02 38.7129 402.874C25.6172 394.517 15.5117 397.574 8.5055 412.463C4.86053 420.226 4.926 428.451 5.10061 436.654" stroke="black" stroke-width="2" stroke-linecap="round" stroke-linejoin="round"/>
<path d="M-36.1289 487.258C-34.5356 491.195 -33.5752 495.571 -31.1962 498.936C-25.827 506.501 -17.2929 507.469 -9.37002 505.776C27.5162 497.946 58.2911 480.309 78.5458 447.056C88.3021 430.958 87.6691 413.694 78.393 398.08C63.1147 372.415 39.5642 356.58 11.2121 349.081C-4.63375 344.88 -13.386 348.553 -19.2355 364.849C-23.9717 378.045 -25.4559 392.34 -27.7913 406.261C-30.0467 419.588 -31.8801 432.974 -33.2915 446.419C-34.6666 459.768 -35.2122 473.183 -36.1289 486.576" stroke="black" stroke-width="2" stroke-linecap="round" stroke-linejoin="round" stroke-dasharray="0.04 0.04"/>
<path d="M472.377 242.154C477.703 270.458 492.13 295.134 503.458 321.018C511.599 339.668 519.958 358.405 532.858 374.394C542.81 386.775 554.946 396.034 570.661 399.245C580.554 401.535 590.818 401.685 600.773 399.683C610.728 397.681 620.149 393.574 628.413 387.633C655.543 368.588 674.946 343.649 685.161 312.046C694.328 284.005 684.593 270.744 661.152 262.409C649.082 258.011 636.466 255.306 624.047 251.875C599.777 245.123 578.78 232.28 558.569 217.413C548.258 209.667 537.22 202.957 525.611 197.378C498.896 184.798 471.308 202.128 472.094 231.092C472.094 234.545 472.094 238.02 472.094 241.472" stroke="black" stroke-width="2" stroke-linecap="round" stroke-linejoin="round"/>
</g>
</g>
</svg>
